<?xml version="1.0" encoding="UTF-8"?>
<svg width="16px" height="15px" viewBox="0 0 16 15" version="1.1" xmlns="http://www.w3.org/2000/svg" xmlns:xlink="http://www.w3.org/1999/xlink">
    <!-- Generator: Sketch 47 (45396) - http://www.bohemiancoding.com/sketch -->
    <title>文章总数</title>
    <desc>Created with Sketch.</desc>
    <defs></defs>
    <g id="Page-1" stroke="none" stroke-width="1" fill="none" fill-rule="evenodd">
        <g id="个人主页-copy" transform="translate(-1271.000000, -390.000000)">
            <g id="文章总数" transform="translate(1271.000000, 390.000000)">
                <path d="M2.79409985,14.9923651 C1.26925187,15.0086178 0.0191482823,13.787204 0,12.2623896 L0,1 L0,1 C-6.76353751e-17,0.44771525 0.44771525,1.01453063e-16 1,0 L11.4812717,0 L11.6248954,0.749993247 L11.4812717,14.107373 C11.5795208,14.107373 12.6955107,14.1216229 12.7930099,14.107373 L12.9268837,14.9623653 C12.7851349,14.9837401 12.6418862,14.99424 12.4990125,14.994615 L2.79409985,14.9923651 Z" id="Path" fill="#999999"></path>
                <path d="M12.865444,14.9944606 C11.4127857,14.9944896 10.3749021,14.0955997 10.3749021,12.7678088 L10.3749021,0.814071175 C10.3749021,0.335506343 10.6470304,4.08614641e-05 11.1800033,8.54497389e-05 C11.6978602,-0.0066115432 12.1236683,0.381162899 12.1316453,0.873839852 L12.131617,12.5729667 C12.1358929,12.949663 12.4648333,13.2519064 12.8713842,13.2482979 C13.3970915,13.2482979 13.7498718,13.0320834 13.7498718,12.7678088 L13.7498718,0.814071175 C13.7498718,0.334953846 14.0118682,4.08614641e-05 14.5482229,8.54497389e-05 C15.0660799,-0.0066115432 15.491888,0.381162899 15.499865,0.873839852 L15.4998208,12.5841877 C15.4807179,13.9311816 14.302189,15.0094542 12.865444,14.9944606 Z" id="Shape" fill="#999999" fill-rule="nonzero"></path>
                <rect id="Rectangle-2" fill="#FFFFFF" x="5" y="3" width="5" height="1" rx="0.5"></rect>
                <rect id="Rectangle-2-Copy" fill="#FFFFFF" x="2" y="6" width="8" height="1" rx="0.5"></rect>
                <rect id="Rectangle-2-Copy-2" fill="#FFFFFF" x="2" y="9" width="8" height="1" rx="0.5"></rect>
            </g>
        </g>
    </g>
</svg>