<?xml version="1.0" encoding="UTF-8"?>
<svg width="16px" height="15px" viewBox="0 0 16 15" version="1.1" xmlns="http://www.w3.org/2000/svg" xmlns:xlink="http://www.w3.org/1999/xlink">
    <!-- Generator: Sketch 47 (45396) - http://www.bohemiancoding.com/sketch -->
    <title>文章总浏览量</title>
    <desc>Created with Sketch.</desc>
    <defs></defs>
    <g id="Page-1" stroke="none" stroke-width="1" fill="none" fill-rule="evenodd">
        <g id="个人主页-copy" transform="translate(-1271.000000, -419.000000)">
            <g id="文章总浏览量" transform="translate(1271.000000, 419.000000)">
                <g id="Group-3" fill="#999999">
                    <path d="M8.00004883,0.0359779808 C4.00299317,0.0359779808 0,5.86586675 0,7.03597798 C0,8.20387892 3.98598143,14.035978 8.00004883,14.035978 C12.0050147,14.035978 16,8.19569855 16,7.03597798 C16,5.8693303 11.9864795,0.0359779808 8.00004883,0.0359779808 Z" id="Fill-1"></path>
                </g>
                <path d="M8,4 C6.34214844,4 5,5.34346094 5,7 C5,8.65719531 6.34214844,10 8,10 C9.65836719,10 11,8.65719531 11,7 C11,5.34346094 9.65836719,4 8,4 Z M8,8.80002344 C7.00636719,8.80002344 6.19997656,7.99363281 6.19997656,7 C6.19997656,6.00582813 7.00636719,5.19997656 8,5.19997656 C8.99351562,5.19997656 9.79990625,6.00582813 9.79990625,7 C9.79990625,7.99363281 8.99471094,8.80002344 8,8.80002344 Z" id="Fill-4" fill="#FFFFFF"></path>
            </g>
        </g>
    </g>
</svg>