<?xml version="1.0" encoding="UTF-8"?>
<svg width="22px" height="21px" viewBox="0 0 22 21" version="1.1" xmlns="http://www.w3.org/2000/svg" xmlns:xlink="http://www.w3.org/1999/xlink">
    <!-- Generator: Sketch 47 (45396) - http://www.bohemiancoding.com/sketch -->
    <title>热门专栏</title>
    <desc>Created with Sketch.</desc>
    <defs></defs>
    <g id="Page-1" stroke="none" stroke-width="1" fill="none" fill-rule="evenodd">
        <g id="专栏作家列表-copy" transform="translate(-1240.000000, -129.000000)" fill="#5670BF">
            <g id="热门专栏" transform="translate(1240.000000, 129.000000)">
                <path d="M13.4225301,11.2947404 C14.8189305,10.1216493 15.7084802,8.36385657 15.7084802,6.39689057 C15.708685,2.86389102 12.8452038,0 9.31179446,0 C5.77859004,0 2.91490389,2.86389102 2.91490389,6.39689057 C2.91490389,8.36119325 3.80219998,10.1855691 5.19511757,11.3594796 C2.3097151,12.7800548 0.264078656,15.3997396 0,19.0824999 C0,19.7161657 0.550693116,20.2328502 1.23045493,20.2328502 C1.90980701,20.2328502 2.46050012,19.73317 2.46050012,19.0540228 C2.8323409,15.3997396 5.77315039,12.4306929 9.31220421,12.8628227 C11.326181,13.1087356 13.7618139,11.4601123 13.4225301,11.2947404 Z M5.37519914,6.39730032 C5.37519914,4.22300491 7.1379088,2.46111473 9.31158959,2.46111473 C11.4852704,2.46111473 13.2475703,4.22320978 13.2475703,6.39730032 C13.2475703,8.57077623 11.4852704,10.3341005 9.31158959,10.3341005 C7.1379088,10.3341005 5.37519914,8.57057136 5.37519914,6.39730032 Z" id="Shape" fill-rule="nonzero"></path>
                <path d="M16.8654054,18.673685 L14.7551556,19.783109 L14.7551556,19.783109 C14.5107333,19.9116094 14.2084197,19.8176361 14.0799193,19.5732139 C14.0287498,19.4758836 14.0110924,19.3643996 14.0296809,19.2560208 L14.4327027,16.906223 L12.7254747,15.242087 L12.7254747,15.242087 C12.5277329,15.0493364 12.5236868,14.7327798 12.7164374,14.535038 C12.7931917,14.4562962 12.8937629,14.4050526 13.0025814,14.3892403 L15.3619125,14.0464095 L16.4170374,11.9084929 L16.4170374,11.9084929 C16.5392485,11.660866 16.8390614,11.5591965 17.0866883,11.6814077 C17.1852946,11.7300728 17.2651083,11.8098866 17.3137735,11.9084929 L18.3688984,14.0464095 L20.7282294,14.3892403 L20.7282294,14.3892403 C21.0015019,14.4289492 21.1908426,14.6826706 21.1511338,14.955943 C21.1353215,15.0647615 21.0840779,15.1653327 21.0053361,15.242087 L19.2981081,16.906223 L19.70113,19.2560208 L19.70113,19.2560208 C19.7478105,19.528189 19.5650166,19.7866669 19.2928484,19.8333475 C19.1844695,19.8519359 19.0729855,19.8342785 18.9756553,19.783109 L16.8654054,18.673685 Z" id="Star-2"></path>
            </g>
        </g>
    </g>
</svg>