<?xml version="1.0" encoding="UTF-8"?>
<svg width="20px" height="18px" viewBox="0 0 20 18" version="1.1" xmlns="http://www.w3.org/2000/svg" xmlns:xlink="http://www.w3.org/1999/xlink">
    <!-- Generator: Sketch 47 (45396) - http://www.bohemiancoding.com/sketch -->
    <title>kuaixun</title>
    <desc>Created with Sketch.</desc>
    <defs></defs>
    <g id="Page-1" stroke="none" stroke-width="1" fill="none" fill-rule="evenodd">
        <g id="1_首页" transform="translate(-1250.000000, -479.000000)">
            <g id="7x24小时一线" transform="translate(1250.000000, 478.000000)">
                <g id="kuaixun" transform="translate(10.000000, 10.000000) rotate(-90.000000) translate(-10.000000, -10.000000) translate(1.000000, 0.000000)">
                    <path d="M14.5026332,-1.77635684e-15 L3.26235103,-3.10062513e-16 C1.45846281,-3.10062513e-16 0,1.4911707 0,3.33551341 L0,14.2394019 C0,16.0837446 1.45846281,17.5749153 3.26235103,17.5749153 L6.52339363,17.5749153 L8.84411152,20 L11.2543841,17.5749153 L14.5154267,17.5749153 C16.319315,17.5749153 17.7777778,16.0837446 17.7777778,14.2394019 L17.7777778,3.32243296 C17.7649842,1.4911707 16.3065214,-1.77635684e-15 14.5026332,-1.77635684e-15 Z" id="Combined-Shape" fill="#4A90E2" fill-rule="nonzero"></path>
                    <path d="M10.2224622,10.4514039 L8.7399568,10.4514039 L8.7399568,11.3974082 L10.2224622,11.3974082 L10.2224622,10.4514039 Z M10.2224622,12.4341253 L8.7399568,12.4341253 L8.7399568,13.3412527 L10.2224622,13.3412527 L10.2224622,12.4341253 Z M11.337509,13.3412527 L12.7946724,13.3412527 L12.7946724,12.4341253 L11.337509,12.4341253 L11.337509,13.3412527 Z M12.7946724,14.4557235 L8.7399568,14.4557235 L8.7399568,15 L7.5362131,15 L7.5362131,9.84233261 L7.28279338,9.98488121 L6.77595392,9.1425486 L6.77595392,9.50539957 C6.47185025,9.66090713 6.18041757,9.81641469 5.90165587,9.97192225 L5.90165587,13.5485961 C5.90165587,14.4298056 5.47084233,14.8704104 4.62188625,14.8704104 L3.5575234,14.8704104 L3.26609071,13.587473 C3.58286537,13.6393089 3.88696904,13.6652268 4.16573074,13.6652268 C4.44449244,13.6652268 4.58387329,13.5097192 4.58387329,13.1987041 L4.58387329,10.5680346 C4.16573074,10.7365011 3.74758819,10.8920086 3.32944564,11.0475162 L3,9.71274298 C3.53218143,9.58315335 4.06436285,9.41468683 4.58387329,9.22030238 L4.58387329,6.62850972 L3.25341973,6.62850972 L3.25341973,5.34557235 L4.58387329,5.34557235 L4.58387329,3.03887689 L5.90165587,3.03887689 L5.90165587,5.34557235 L6.81396688,5.34557235 L6.81396688,6.62850972 L5.90165587,6.62850972 L5.90165587,8.65010799 L6.77595392,8.18358531 L6.77595392,8.83153348 C7.80230382,8.42980562 8.58790497,7.95032397 9.14542837,7.38012959 L7.13074154,7.38012959 L7.13074154,6.21382289 L8.35982721,6.21382289 C8.22044636,5.90280778 8.06839453,5.61771058 7.89100072,5.35853132 L8.96803456,4.93088553 C9.14542837,5.2937365 9.32282217,5.72138229 9.47487401,6.21382289 L10.1717783,6.21382289 L10.1717783,4.6587473 C9.33549316,4.71058315 8.43585313,4.73650108 7.49820014,4.73650108 L7.11807055,3.6349892 C9.77897768,3.6349892 12.0217423,3.41468683 13.8717063,3 L14.4799136,4.06263499 C13.5802736,4.29589633 12.5412527,4.46436285 11.375522,4.56803456 L11.375522,6.21382289 L12.0724262,6.21382289 C12.3131749,5.72138229 12.5285817,5.21598272 12.7186465,4.67170626 L13.8336933,5.06047516 C13.6436285,5.47516199 13.4408927,5.86393089 13.225486,6.21382289 L14.6192945,6.21382289 L14.6192945,7.38012959 L12.4145428,7.38012959 C13.0480922,7.92440605 13.9097192,8.40388769 14.999424,8.81857451 L14.4292297,9.92008639 C14.2645068,9.84233261 14.125126,9.76457883 13.9984161,9.68682505 L13.9984161,15 L12.7946724,15 L12.7946724,14.4557235 Z M13.4915767,9.36285097 C12.6552916,8.79265659 11.9583873,8.13174946 11.4008639,7.38012959 L11.375522,7.38012959 L11.375522,8.98704104 L10.1717783,8.98704104 L10.1717783,7.38012959 L10.1464363,7.38012959 C9.69028078,8.13174946 9.08207343,8.79265659 8.29647228,9.36285097 L13.4915767,9.36285097 Z M11.337509,11.3974082 L12.7946724,11.3974082 L12.7946724,10.4514039 L11.337509,10.4514039 L11.337509,11.3974082 Z" id="播" fill="#FFFFFF" transform="translate(8.999712, 9.000000) rotate(-270.000000) translate(-8.999712, -9.000000) "></path>
                </g>
            </g>
        </g>
    </g>
</svg>