<?xml version="1.0" encoding="UTF-8"?>
<svg width="16px" height="13px" viewBox="0 0 16 13" version="1.1" xmlns="http://www.w3.org/2000/svg" xmlns:xlink="http://www.w3.org/1999/xlink">
    <!-- Generator: Sketch 47 (45396) - http://www.bohemiancoding.com/sketch -->
    <title>liuliang</title>
    <desc>Created with Sketch.</desc>
    <defs>
        <polygon id="path-1" points="4.52335878e-19 0 0 13 17.7994727 13 17.7994727 2.40549105e-15"></polygon>
    </defs>
    <g id="Page-1" stroke="none" stroke-width="1" fill="none" fill-rule="evenodd">
        <g id="1_首页" transform="translate(-774.000000, -642.000000)">
            <g id="Group-4-Copy" transform="translate(680.000000, 641.000000)">
                <g id="liuliang" transform="translate(93.000000, 1.000000)">
                    <g id="Group-3">
                        <mask id="mask-2" fill="white">
                            <use xlink:href="#path-1"></use>
                        </mask>
                        <g id="Clip-2"></g>
                        <path d="M9.00004883,1.11629557 C12.2304825,1.11629557 15.5604865,5.40420623 15.9765222,6.51798899 C15.5614826,7.63236256 12.2304825,11.9196824 9.00004883,11.9196824 C5.75854097,11.9196824 2.43097831,7.62913421 2.02347781,6.51798899 C2.43349784,5.40741348 5.76098237,1.11629557 9.00004883,1.11629557 L9.00004883,1.11629557 Z M9.00004883,0.0359779808 C5.00299317,0.0359779808 1,5.43446415 1,6.51798899 C1,7.5994671 4.98598143,13 9.00004883,13 C13.0050147,13 17,7.59189206 17,6.51798899 C17,5.43767141 12.9864795,0.0359779808 9.00004883,0.0359779808 Z" id="Fill-1" fill="#9B9B9B" mask="url(#mask-2)"></path>
                    </g>
                    <path d="M9,4 C7.89476562,4 7,4.89564063 7,6 C7,7.10479687 7.89476562,8 9,8 C10.1055781,8 11,7.10479687 11,6 C11,4.89564063 10.1055781,4 9,4 Z M9,7.20001562 C8.33757812,7.20001562 7.79998437,6.66242188 7.79998437,6 C7.79998437,5.33721875 8.33757812,4.79998438 9,4.79998438 C9.66234375,4.79998438 10.1999375,5.33721875 10.1999375,6 C10.1999375,6.66242188 9.66314062,7.20001562 9,7.20001562 Z" id="Fill-4" fill="#9B9B9B"></path>
                </g>
            </g>
        </g>
    </g>
</svg>