<?xml version="1.0" encoding="UTF-8"?>
<svg width="150px" height="38px" viewBox="0 0 150 38" version="1.1" xmlns="http://www.w3.org/2000/svg" xmlns:xlink="http://www.w3.org/1999/xlink">
    <!-- Generator: Sketch 47 (45396) - http://www.bohemiancoding.com/sketch -->
    <title>logo -2</title>
    <desc>Created with Sketch.</desc>
    <defs></defs>
    <g id="Page-1" stroke="none" stroke-width="1" fill="none" fill-rule="evenodd">
        <g id="方案01-copy-3" transform="translate(-360.000000, -11.000000)" fill-rule="nonzero" fill="#FFE8BA">
            <g id="logo--2" transform="translate(360.000000, 11.000000)">
                <g id="logo文字-02" transform="translate(47.000000, 7.000000)">
                    <polygon id="Shape" points="60.7 5.1 57.8 5.8 57.8 16.2 54.3 24 57.1 24 59.3 19.4 61.4 24 64.3 24 60.7 16.2"></polygon>
                    <polygon id="Shape" points="54.1 1.3 53.8 1.3 53.8 18 54.4 18 55.7 18 56.3 18 56.3 14.6 56.3 2.8 62.2 2.8 62.2 18 65.1 18 65.1 1.3 64.7 1.3"></polygon>
                    <polygon id="Shape" points="75.1 0.6 71.9 1.4 71.9 2.5 66.5 2.5 66.5 3.9 68.6 3.9 66.3 24 69.2 24 71.5 3.9 71.9 3.9 71.9 5 71.9 7.6 71.9 15.9 71.9 20.7 71.9 24 75.1 24 75.1 6.7 75.1 5 75.1 3.9 76.3 3.9 76.3 2.5 75.1 2.5"></polygon>
                    <polygon id="Shape" points="45.4 2.3 39 2.3 39 0 34.9 2 34.3 2.3 30.5 2.3 27.2 2.3 27.2 3.8 27.2 24 30.5 24 30.5 3.8 45.4 3.8 45.4 24 48.7 24 48.7 2.3 47.9 2.3"></polygon>
                    <path d="M39.7,6.2 L36.1,6.2 L32.9,6.2 L32.9,7.7 L32.9,20.4 L32.9,21.9 L34.7,21.9 L36.1,21.9 L39.7,21.9 L41.1,21.9 L42.7,21.9 L43,21.9 L43,6.2 L42.8,6.2 L39.7,6.2 Z M39.7,7.7 L39.7,20.1 L36.1,20.1 L36.1,7.7 L39.7,7.7 Z" id="Shape"></path>
                    <polygon id="Shape" points="11.2 1.4 7.9 3.9 11.2 3.9"></polygon>
                    <polygon id="Shape" points="20.1 12 22.8 12 22.8 10.5 20.1 10.5 20.1 6.2 16.9 6.9 16.9 10.5 15.4 10.5 16.3 4.1 22.8 4.1 22.8 2.6 16.5 2.6 16.7 1 13.9 1 13.6 2.6 12.2 2.6 12.2 4.1 13.4 4.1 12.3 12 12.9 12 15.2 12 16.9 12 16.9 15.2 12.1 15.2 12.1 16.6 16.9 16.6 16.9 21.3 20.1 21.3 20.1 16.6 23.1 16.6 23.1 15.2 20.1 15.2"></polygon>
                    <polygon id="Shape" points="1.5 6.9 0 6.9 0 8.4 1.5 8.4 1.5 11.6 0 11.6 0 13.1 1.5 13.1 1.5 24 4.7 24 4.7 13.1 6.2 13.1 6.2 11.6 4.7 11.6 4.7 8.4 6.2 8.4 6.2 6.9 4.7 6.9"></polygon>
                    <polygon id="Shape" points="4.8 1 1.6 1 0 6.1 3.2 6.1 3.9 4.1 6.2 4.1 6.2 2.6 4.3 2.6"></polygon>
                    <polygon id="Shape" points="11.6 5.9 10.9 5.9 8.6 5.9 7.5 5.9 7.5 7.3 8.4 7.3 6.8 24 8.9 24 9.8 24 23.1 24 23.1 22.5 10 22.5"></polygon>
                    <polygon id="Shape" points="82.4 16.3 82.6 16.3 87.2 16.3 87.2 14.8 83.3 14.8 86.3 8.4 83.1 8.4 86.7 1 83.3 1 79.6 8.6 82.8 8.6 79.2 16.3"></polygon>
                    <polygon id="Shape" points="91.3 10.8 94.8 7.4 98.4 10.8 102.2 10.8 96.7 5.7 100.8 1.7 100.3 1.7 97.1 1.7 87.8 1.7 87.8 3.2 95.5 3.2 87.5 10.8"></polygon>
                    <polygon id="Shape" points="96.4 22.5 96.4 14.1 101.7 14.1 101.7 12.6 87.3 12.6 87.3 14.1 93 14.1 93 22.5 86.8 22.5 86.8 24 102.2 24 102.2 22.5"></polygon>
                    <polygon id="Shape" points="79.6 24 83 24 86.1 18 82.7 18"></polygon>
                </g>
                <g id="chainfor-LOGO-02">
                    <path d="M16.8,37.1 C16.8,36.3 17.3,35.5 17.9,35.1 C18,35 18.1,34.9 18.1,34.8 L18.1,22.1 C18.1,21.9 18,21.7 17.8,21.6 C16.5,21.1 15.6,19.9 15.6,18.4 C15.6,18.2 15.6,18.1 15.6,17.9 C15.6,17.7 15.5,17.5 15.3,17.3 L4.3,10.9 C4.1,10.8 4,10.8 3.8,10.9 C3.5,11.1 3.2,11.1 2.8,11.1 C2.2,11.1 1.6,10.9 1.2,10.4 C1.1,10.3 0.9,10.4 0.9,10.5 C1,13 1,22 1,26.4 C1,27.9 1.8,29.4 3.2,30.2 L13.1,35.9 L14.4,36.6 L16.7,37.9 C16.8,38 17,37.9 17,37.7 C16.8,37.6 16.8,37.4 16.8,37.1 Z" id="Shape"></path>
                    <path d="M37,10.5 C36.6,10.9 36.1,11.2 35.6,11.3 C35.5,11.3 35.4,11.4 35.3,11.5 L21.4,36.3 C21.4,36.4 21.3,36.5 21.4,36.6 C21.4,36.8 21.5,36.9 21.5,37.1 C21.5,37.3 21.5,37.5 21.4,37.7 C21.4,37.9 21.5,38 21.7,37.9 L35,30.2 C36.3,29.4 37.2,28 37.2,26.4 L37.2,10.6 C37.2,10.5 37.1,10.5 37,10.5 Z" id="Shape"></path>
                    <path d="M34.2,11 C34.1,11 34.1,10.9 33.9,11 L22.8,17.4 C22.6,17.5 22.5,17.7 22.5,18 C22.5,18.1 22.5,18.3 22.5,18.5 C22.5,19.9 21.6,21.2 20.3,21.7 C20.1,21.8 20,22 20,22.2 L20,35 C20,35.1 20,35.1 20.1,35.2 C20.2,35.3 20.4,35.4 20.5,35.5 C20.6,35.6 20.7,35.5 20.8,35.4 L34.3,11.4 C34.4,11.2 34.3,11.1 34.2,11 Z" id="Shape"></path>
                    <path d="M34.2,6.6 L21.2,0.6 C19.9,-0.2 18.2,-0.2 16.9,0.6 L3.9,6.7 C3.6,6.8 3.8,6.9 3.8,6.9 C3.8,6.9 3.8,6.9 3.8,6.9 C3.9,7 4,7.1 4.1,7.1 C4.3,7.2 4.4,7.3 4.5,7.5 C4.6,7.6 4.7,7.6 4.8,7.6 L33.1,8 C33.2,8 33.3,7.9 33.4,7.8 C33.6,7.5 33.9,7.2 34.2,7 C34.3,7 34.3,6.9 34.3,6.8 C34.4,6.7 34.3,6.7 34.2,6.6 Z" id="Shape"></path>
                    <path d="M33,9.3 C33,9.2 33,9.2 33,9.1 C33,9 32.8,8.9 32.7,8.9 C32.7,8.9 5.5,8.6 5.5,8.6 C5.2,8.6 5.2,8.7 5.2,9 C5.2,9 5.2,9.1 5.2,9.1 C5.2,9.1 5.2,9.2 5.2,9.2 C5.2,9.3 5.6,9.6 5.6,9.6 L16.4,15.9 C16.6,16 16.8,16 17,15.9 C17.9,15.2 19.1,15 20.2,15.4 C20.6,15.5 20.9,15.7 21.2,15.9 C21.3,16 21.4,16 21.5,16 C21.6,16 21.7,16 21.8,15.9 C21.8,15.9 32.8,9.5 32.8,9.5 C32.8,9.5 32.9,9.4 32.9,9.4 C33,9.3 33,9.3 33,9.3 Z" id="Shape"></path>
                </g>
            </g>
        </g>
    </g>
</svg>