<?xml version="1.0" encoding="UTF-8"?>
<svg width="36px" height="30px" viewBox="0 0 36 30" version="1.1" xmlns="http://www.w3.org/2000/svg" xmlns:xlink="http://www.w3.org/1999/xlink">
    <!-- Generator: Sketch 47 (45396) - http://www.bohemiancoding.com/sketch -->
    <title>no.1</title>
    <desc>Created with Sketch.</desc>
    <defs></defs>
    <g id="Page-1" stroke="none" stroke-width="1" fill="none" fill-rule="evenodd">
        <g id="1_首页" transform="translate(-1270.000000, -1381.000000)">
            <g id="热门文章" transform="translate(1230.000000, 1314.000000)">
                <g id="Group-13" transform="translate(20.000000, 67.000000)">
                    <g id="no.1" transform="translate(20.000000, 0.000000)">
                        <path d="M33,30 L3,30 L0,30 L3,27.1315624 L6,30 L3,30 L0,30 L0,0 L36,0 L36,30 L33,30 L36,30 L33,27.1315624 L30,30 L33,30 Z M9,27.1315624 L6,30 L12,30 L9,27.1315624 Z M15,27.1315624 L12,30 L18,30 L15,27.1315624 Z M21,27.1315624 L18,30 L24,30 L21,27.1315624 Z M27,27.1315624 L24,30 L30,30 L27,27.1315624 Z" fill="#E55400"></path>
                        <path d="M6.26100004,10.004 L6.26100004,20 L7.89900004,20 L7.89900004,12.692 L7.95500004,12.692 L12.953,20 L14.549,20 L14.549,10.004 L12.897,10.004 L12.897,17.214 L12.841,17.214 L7.89900004,10.004 L6.26100004,10.004 Z M19.129,12.566 C20.221,12.566 21.103,12.916 21.775,13.644 C22.433,14.358 22.769,15.268 22.769,16.388 C22.769,17.494 22.433,18.404 21.789,19.104 C21.117,19.832 20.221,20.196 19.129,20.196 C18.023,20.196 17.141,19.832 16.469,19.104 C15.811,18.404 15.489,17.494 15.489,16.388 C15.489,15.268 15.811,14.358 16.483,13.644 C17.141,12.916 18.023,12.566 19.129,12.566 Z M19.129,13.868 C18.457,13.868 17.953,14.12 17.589,14.652 C17.281,15.1 17.127,15.688 17.127,16.388 C17.127,17.088 17.281,17.662 17.589,18.11 C17.953,18.628 18.457,18.894 19.129,18.894 C19.787,18.894 20.305,18.628 20.669,18.11 C20.977,17.648 21.145,17.074 21.145,16.388 C21.145,15.688 20.977,15.1 20.669,14.652 C20.305,14.12 19.787,13.868 19.129,13.868 Z M24.647,17.886 C24.339,17.886 24.073,17.984 23.877,18.208 C23.653,18.418 23.555,18.684 23.555,18.992 C23.555,19.3 23.653,19.552 23.877,19.776 C24.073,19.972 24.339,20.084 24.647,20.084 C24.955,20.084 25.207,19.972 25.431,19.776 C25.641,19.552 25.753,19.3 25.753,18.992 C25.753,18.684 25.641,18.418 25.431,18.208 C25.207,17.984 24.955,17.886 24.647,17.886 Z M29.227,10.004 C28.891,10.354 28.471,10.676 27.967,10.984 C27.463,11.264 26.987,11.46 26.539,11.572 L26.539,13.196 C27.463,12.93 28.219,12.524 28.821,11.978 L28.821,20 L30.459,20 L30.459,10.004 L29.227,10.004 Z" id="No.1" fill="#FFFFFF"></path>
                    </g>
                </g>
            </g>
        </g>
    </g>
</svg>