<?xml version="1.0" encoding="UTF-8"?>
<svg width="21px" height="20px" viewBox="0 0 21 20" version="1.1" xmlns="http://www.w3.org/2000/svg" xmlns:xlink="http://www.w3.org/1999/xlink">
    <!-- Generator: Sketch 47 (45396) - http://www.bohemiancoding.com/sketch -->
    <title>wenzhang</title>
    <desc>Created with Sketch.</desc>
    <defs></defs>
    <g id="Page-1" stroke="none" stroke-width="1" fill="none" fill-rule="evenodd">
        <g id="1_首页" transform="translate(-1250.000000, -1342.000000)">
            <g id="热门文章" transform="translate(1230.000000, 1314.000000)">
                <g id="Group-6" transform="translate(20.000000, 24.000000)">
                    <g id="wenzhang" transform="translate(0.000000, 4.000000)">
                        <path d="M15.4599413,8.33434777e-15 L4.70733835,7.10542736e-15 C2.65739832,7.10542736e-15 1,1.42624594 1,3.19028697 L1,13.6194261 C1,15.3834671 2.65739832,16.809713 4.70733835,16.809713 L6.39084003,16.809713 L10.0400241,20 L13.7909781,16.809713 L15.4744798,16.809713 C17.5244199,16.809713 19.1818182,15.3834671 19.1818182,13.6194261 L19.1818182,3.17777604 C19.1672796,1.42624594 17.5098813,8.33434777e-15 15.4599413,8.33434777e-15 Z" id="Combined-Shape" fill="#E55400" fill-rule="nonzero" transform="translate(10.090909, 10.000000) rotate(-90.000000) translate(-10.090909, -10.000000) "></path>
                        <path d="M6.53022269,4.81442206 L9.29162248,4.81442206 L9.29162248,4 L10.5896076,4 L10.5896076,4.81442206 L13.3382821,4.81442206 L13.3382821,6.01060445 L10.5896076,6.01060445 L10.5896076,6.78685048 L13.5800636,6.78685048 L13.5800636,7.61399788 C13.3637328,8.42841994 13.0837752,9.23011665 12.7401909,10.0318134 L11.4422057,9.66277837 C11.7221633,9.17921527 11.9512195,8.63202545 12.154825,8.00848356 L6.00848356,8.00848356 L6.00848356,6.78685048 L9.29162248,6.78685048 L9.29162248,6.01060445 L6.53022269,6.01060445 L6.53022269,4.81442206 Z M6.03393425,11.3679745 L7.72640509,11.3679745 C7.19194062,10.9098621 6.6447508,10.5535525 6.08483563,10.2735949 L6.70837752,9.3573701 C7.39554613,9.67550371 8.03181336,10.0699894 8.60445387,10.5408271 L8.05726405,11.3679745 L9.54612937,11.3679745 L9.62248144,10.7062566 L9.62248144,8.28844115 L10.9077413,8.28844115 L10.9077413,10.7062566 C10.8950159,10.9353128 10.8695652,11.1516437 10.8441145,11.3679745 L13.7709438,11.3679745 L13.7709438,12.5896076 L10.5896076,12.5896076 C10.5641569,12.678685 10.5259809,12.7677625 10.5005302,12.8441145 C11.7221633,13.4040297 12.854719,14.078473 13.8981972,14.8419936 L13.1474019,16 C12.116649,15.1219512 11.0604454,14.4093319 9.99151644,13.8494168 L9.78791092,14.1293743 C9.126193,14.931071 8.04453871,15.5546129 6.56839873,15.9872747 L5.85577943,14.8674443 C7.30646872,14.447508 8.27359491,13.9257688 8.7826087,13.3022269 C8.93531283,13.0731707 9.07529162,12.8441145 9.20254507,12.5896076 L6.03393425,12.5896076 L6.03393425,11.3679745 Z M7.79003181,8.07211029 C8.42629905,8.37751856 9.0116649,8.73382821 9.54612937,9.16648993 L8.92258749,10.1208908 C8.36267232,9.61187699 7.77730647,9.2173913 7.19194062,8.93743372 L7.79003181,8.07211029 Z M3.80699894,4.21633086 L2.87804878,5.11983033 C3.76882291,5.78154825 4.46871686,6.39236479 4.95227996,6.97773065 L5.85577943,6.06150583 C5.29586426,5.45068929 4.60869565,4.8271474 3.80699894,4.21633086 Z M2,7.88123012 L4.9650053,7.88123012 L4.9650053,12.971368 C5.19406151,12.7295864 5.42311771,12.4750795 5.6776246,12.2078473 L6.0466596,13.5949099 C5.34676564,14.3329799 4.60869565,14.9819724 3.84517497,15.5546129 L3.33616119,14.3584305 C3.55249205,14.1675504 3.66702015,13.9384942 3.66702015,13.6712619 L3.66702015,9.15376458 L2,9.15376458 L2,7.88123012 Z" id="读" fill="#FFFFFF"></path>
                    </g>
                </g>
            </g>
        </g>
    </g>
</svg>