<?xml version="1.0" encoding="UTF-8"?>
<svg width="22px" height="23px" viewBox="0 0 22 23" version="1.1" xmlns="http://www.w3.org/2000/svg" xmlns:xlink="http://www.w3.org/1999/xlink">
    <!-- Generator: Sketch 47 (45396) - http://www.bohemiancoding.com/sketch -->
    <title>专栏-编辑</title>
    <desc>Created with Sketch.</desc>
    <defs></defs>
    <g id="Page-1" stroke="none" stroke-width="1" fill="none" fill-rule="evenodd">
        <g id="个人主页-copy" transform="translate(-380.000000, -129.000000)" fill-rule="nonzero" fill="#5670BF">
            <g id="Group-6" transform="translate(380.000000, 129.000000)">
                <g id="专栏-编辑">
                    <path d="M14.1211602,15.1117106 C14.368331,15.3422239 14.6935019,15.4707854 15.0314798,15.4716201 C15.3888346,15.4716796 15.7315669,15.329732 15.9842338,15.077023 C16.2369007,14.824314 16.3787913,14.4815581 16.3786722,14.1242033 C16.3786722,13.6530002 16.1358904,13.239912 15.7699225,12.9989253 L15.7851806,12.979404 C15.4380606,12.7549118 15.0777218,12.5515515 14.7061253,12.37043 C16.2355162,11.0856159 17.2097849,9.16041434 17.2097849,7.00611825 C17.2100092,3.13664255 14.0738155,0 10.203891,0 C6.33419092,0 3.19777275,3.13664255 3.19777275,7.00611825 C3.19777275,9.15749737 4.16957323,11.1556233 5.69514964,12.4413348 C2.53494693,13.9972029 0.294487968,16.8663815 0.00525896414,20.8998808 L0.00772717131,20.8998808 C0.00772717131,20.8998808 0.00525896414,20.841317 0.00525896414,20.8500679 C0.00525896414,21.5938958 0.608399044,22.1597884 1.35290008,22.1597884 C2.09695235,22.1597884 2.70009243,21.6125195 2.70009243,20.8686916 C2.70009243,20.8601651 2.69762422,20.8998808 2.69762422,20.8998808 L2.70368255,20.8998808 C3.10734661,16.8663815 6.31085514,14.0878534 10.2043398,14.0878534 C11.63949,14.0878534 12.9761364,14.4576357 14.1182432,15.1536701 L14.1211602,15.1117106 Z M5.89238183,7.00656701 C5.89238183,4.62519586 7.82296861,2.69550661 10.2036666,2.69550661 C12.5843646,2.69550661 14.5145026,4.62542024 14.5145026,7.00656701 C14.5145026,9.38704064 12.5843646,11.3183006 10.2036666,11.3183006 C7.82296861,11.3183006 5.89238183,9.38681625 5.89238183,7.00656701 Z M17.7489759,20.7493202 C17.749016,21.2307058 18.0058692,21.6755031 18.4227815,21.9161612 C18.8396937,22.1568193 19.353326,22.1567765 19.7701982,21.916049 C20.1870703,21.6753215 20.4438495,21.2304814 20.4438094,20.7490958 C20.4437474,20.0049381 19.8404382,19.4017293 19.0962805,19.4017912 C18.3521228,19.4018532 17.748914,20.0051624 17.7489759,20.7493202 L17.7489759,20.7493202 Z M21.6765667,13.2509068 L21.2957896,12.8687834 C20.8744444,12.4489443 20.1929048,12.4489443 19.7715595,12.8687834 L13.7942349,18.84723 C13.373069,19.2674983 11.7563933,21.5667455 12.1771104,21.9879114 L12.5583363,22.3686884 C12.9786046,22.7900787 15.2776274,21.1731786 15.6992421,20.7517884 L21.6765667,14.7746881 C21.8787957,14.5727087 21.9924277,14.298616 21.9924277,14.0127975 C21.9924277,13.7269789 21.8787957,13.4528862 21.6765667,13.2509068 L21.6765667,13.2509068 Z" id="Shape"></path>
                </g>
            </g>
        </g>
    </g>
</svg>