<?xml version="1.0" encoding="UTF-8"?>
<svg width="26px" height="26px" viewBox="0 0 26 26" version="1.1" xmlns="http://www.w3.org/2000/svg" xmlns:xlink="http://www.w3.org/1999/xlink">
    <!-- Generator: Sketch 47 (45396) - http://www.bohemiancoding.com/sketch -->
    <title>chainfor-zhuanlan</title>
    <desc>Created with Sketch.</desc>
    <defs>
        <circle id="path-1" cx="13" cy="13" r="13"></circle>
    </defs>
    <g id="Page-1" stroke="none" stroke-width="1" fill="none" fill-rule="evenodd">
        <g id="1_首页_专栏作家" transform="translate(-640.000000, -857.000000)">
            <g id="Group-33" transform="translate(380.000000, 732.000000)">
                <g id="chainfor-zhuanlan" transform="translate(260.000000, 125.000000)">
                    <mask id="mask-2" fill="white">
                        <use xlink:href="#path-1"></use>
                    </mask>
                    <use id="Mask" fill="#7C95E2" xlink:href="#path-1"></use>
                    <g id="chainfor-LOGO-02" mask="url(#mask-2)" fill-rule="nonzero" fill="#FFFFFF">
                        <g transform="translate(5.000000, 5.000000)" id="Shape">
                            <path d="M7.07368421,15.6210526 C7.07368421,15.2842105 7.28421053,14.9473684 7.53684211,14.7789474 C7.57894737,14.7368421 7.62105263,14.6947368 7.62105263,14.6526316 L7.62105263,9.30526316 C7.62105263,9.22105263 7.57894737,9.13684211 7.49473684,9.09473684 C6.94736842,8.88421053 6.56842105,8.37894737 6.56842105,7.74736842 C6.56842105,7.66315789 6.56842105,7.62105263 6.56842105,7.53684211 C6.56842105,7.45263158 6.52631579,7.36842105 6.44210526,7.28421053 L1.81052632,4.58947368 C1.72631579,4.54736842 1.68421053,4.54736842 1.6,4.58947368 C1.47368421,4.67368421 1.34736842,4.67368421 1.17894737,4.67368421 C0.926315789,4.67368421 0.673684211,4.58947368 0.505263158,4.37894737 C0.463157895,4.33684211 0.378947368,4.37894737 0.378947368,4.42105263 C0.421052632,5.47368421 0.421052632,9.26315789 0.421052632,11.1157895 C0.421052632,11.7473684 0.757894737,12.3789474 1.34736842,12.7157895 L5.51578947,15.1157895 L6.06315789,15.4105263 L7.03157895,15.9578947 C7.07368421,16 7.15789474,15.9578947 7.15789474,15.8736842 C7.07368421,15.8315789 7.07368421,15.7473684 7.07368421,15.6210526 Z"></path>
                            <path d="M15.5789474,4.42105263 C15.4105263,4.58947368 15.2,4.71578947 14.9894737,4.75789474 C14.9473684,4.75789474 14.9052632,4.8 14.8631579,4.84210526 L9.01052632,15.2842105 C9.01052632,15.3263158 8.96842105,15.3684211 9.01052632,15.4105263 C9.01052632,15.4947368 9.05263158,15.5368421 9.05263158,15.6210526 C9.05263158,15.7052632 9.05263158,15.7894737 9.01052632,15.8736842 C9.01052632,15.9578947 9.05263158,16 9.13684211,15.9578947 L14.7368421,12.7157895 C15.2842105,12.3789474 15.6631579,11.7894737 15.6631579,11.1157895 L15.6631579,4.46315789 C15.6631579,4.42105263 15.6210526,4.42105263 15.5789474,4.42105263 Z"></path>
                            <path d="M14.4,4.63157895 C14.3578947,4.63157895 14.3578947,4.58947368 14.2736842,4.63157895 L9.6,7.32631579 C9.51578947,7.36842105 9.47368421,7.45263158 9.47368421,7.57894737 C9.47368421,7.62105263 9.47368421,7.70526316 9.47368421,7.78947368 C9.47368421,8.37894737 9.09473684,8.92631579 8.54736842,9.13684211 C8.46315789,9.17894737 8.42105263,9.26315789 8.42105263,9.34736842 L8.42105263,14.7368421 C8.42105263,14.7789474 8.42105263,14.7789474 8.46315789,14.8210526 C8.50526316,14.8631579 8.58947368,14.9052632 8.63157895,14.9473684 C8.67368421,14.9894737 8.71578947,14.9473684 8.75789474,14.9052632 L14.4421053,4.8 C14.4842105,4.71578947 14.4421053,4.67368421 14.4,4.63157895 Z"></path>
                            <path d="M14.4,2.77894737 L8.92631579,0.252631579 C8.37894737,-0.0842105263 7.66315789,-0.0842105263 7.11578947,0.252631579 L1.64210526,2.82105263 C1.51578947,2.86315789 1.6,2.90526316 1.6,2.90526316 C1.6,2.90526316 1.6,2.90526316 1.6,2.90526316 C1.64210526,2.94736842 1.68421053,2.98947368 1.72631579,2.98947368 C1.81052632,3.03157895 1.85263158,3.07368421 1.89473684,3.15789474 C1.93684211,3.2 1.97894737,3.2 2.02105263,3.2 L13.9368421,3.36842105 C13.9789474,3.36842105 14.0210526,3.32631579 14.0631579,3.28421053 C14.1473684,3.15789474 14.2736842,3.03157895 14.4,2.94736842 C14.4421053,2.94736842 14.4421053,2.90526316 14.4421053,2.86315789 C14.4842105,2.82105263 14.4421053,2.82105263 14.4,2.77894737 Z"></path>
                            <path d="M13.8947368,3.91578947 C13.8947368,3.87368421 13.8947368,3.87368421 13.8947368,3.83157895 C13.8947368,3.78947368 13.8105263,3.74736842 13.7684211,3.74736842 C13.7684211,3.74736842 2.31578947,3.62105263 2.31578947,3.62105263 C2.18947368,3.62105263 2.18947368,3.66315789 2.18947368,3.78947368 C2.18947368,3.78947368 2.18947368,3.83157895 2.18947368,3.83157895 C2.18947368,3.83157895 2.18947368,3.87368421 2.18947368,3.87368421 C2.18947368,3.91578947 2.35789474,4.04210526 2.35789474,4.04210526 L6.90526316,6.69473684 C6.98947368,6.73684211 7.07368421,6.73684211 7.15789474,6.69473684 C7.53684211,6.4 8.04210526,6.31578947 8.50526316,6.48421053 C8.67368421,6.52631579 8.8,6.61052632 8.92631579,6.69473684 C8.96842105,6.73684211 9.01052632,6.73684211 9.05263158,6.73684211 C9.09473684,6.73684211 9.13684211,6.73684211 9.17894737,6.69473684 C9.17894737,6.69473684 13.8105263,4 13.8105263,4 C13.8105263,4 13.8526316,3.95789474 13.8526316,3.95789474 C13.8947368,3.91578947 13.8947368,3.91578947 13.8947368,3.91578947 Z"></path>
                        </g>
                    </g>
                </g>
            </g>
        </g>
    </g>
</svg>